<svg width="22" height="22" viewBox="0 0 22 22" fill="none" xmlns="http://www.w3.org/2000/svg">
<g clip-path="url(#clip0)">
<path d="M19.3143 2.62866H2.69025C1.20629 2.62866 0 3.83495 0 5.31892V16.6808C0 18.1648 1.20629 19.3711 2.69025 19.3711H19.3097C20.7937 19.3711 22 18.1648 22 16.6808V5.32347C22.0046 3.8395 20.7983 2.62866 19.3143 2.62866ZM20.7755 16.6808C20.7755 17.4865 20.12 18.142 19.3143 18.142H2.69025C1.88454 18.142 1.22905 17.4865 1.22905 16.6808V5.32347C1.22905 4.51776 1.88454 3.86226 2.69025 3.86226H19.3097C20.1155 3.86226 20.771 4.51776 20.771 5.32347V16.6808H20.7755Z" fill="#B3B4B6"/>
<path d="M13.8746 10.8586L19.2551 6.03348C19.5055 5.80588 19.5282 5.41895 19.3006 5.16404C19.073 4.91368 18.6861 4.89092 18.4312 5.11852L11.0114 11.7782L9.56381 10.4854C9.55925 10.4808 9.5547 10.4763 9.5547 10.4717C9.52284 10.4399 9.49097 10.4125 9.45456 10.3852L3.56422 5.11397C3.3093 4.88637 2.92238 4.90913 2.69478 5.16404C2.46718 5.41895 2.48994 5.80588 2.74485 6.03348L8.18909 10.8996L2.76761 15.9751C2.5218 16.2073 2.50815 16.5942 2.7403 16.8446C2.8632 16.972 3.02708 17.0403 3.19095 17.0403C3.34117 17.0403 3.49139 16.9857 3.60974 16.8764L9.11315 11.7281L10.6062 13.0618C10.7246 13.1665 10.8702 13.2166 11.0159 13.2166C11.1616 13.2166 11.3118 13.162 11.4256 13.0573L12.9596 11.6826L18.4312 16.881C18.5495 16.9948 18.7043 17.0494 18.8545 17.0494C19.0184 17.0494 19.1777 16.9857 19.3006 16.8582C19.5328 16.6124 19.5237 16.2209 19.2779 15.9888L13.8746 10.8586Z" fill="#B3B4B6"/>
</g>
<defs>
<clipPath id="clip0">
<rect width="22" height="22" fill="white"/>
</clipPath>
</defs>
</svg>
