<svg width="27" height="26" viewBox="0 0 27 26" fill="none" xmlns="http://www.w3.org/2000/svg">
<g clip-path="url(#clip0)">
<path d="M23.7039 3.10669H3.30168C1.48045 3.10669 0 4.53231 0 6.28608V19.7138C0 21.4675 1.48045 22.8932 3.30168 22.8932H23.6983C25.5196 22.8932 27 21.4675 27 19.7138V6.29146C27.0056 4.53768 25.5251 3.10669 23.7039 3.10669ZM25.4972 19.7138C25.4972 20.666 24.6927 21.4406 23.7039 21.4406H3.30168C2.31285 21.4406 1.50838 20.666 1.50838 19.7138V6.29146C1.50838 5.33926 2.31285 4.56458 3.30168 4.56458H23.6983C24.6872 4.56458 25.4916 5.33926 25.4916 6.29146V19.7138H25.4972Z" fill="white"/>
<path d="M17.028 12.833L23.6314 7.13057C23.9386 6.86158 23.9666 6.40431 23.6872 6.10305C23.4079 5.80716 22.9331 5.78026 22.6202 6.04925L13.5141 13.9197L11.7375 12.3919C11.7319 12.3865 11.7263 12.3811 11.7263 12.3758C11.6872 12.3381 11.6481 12.3058 11.6034 12.2735L4.37439 6.04387C4.06154 5.77489 3.58668 5.80178 3.30735 6.10305C3.02802 6.40431 3.05595 6.86158 3.3688 7.13057L10.0504 12.8814L3.39674 18.8798C3.09506 19.1542 3.0783 19.6114 3.36322 19.9073C3.51405 20.0579 3.71517 20.1386 3.91629 20.1386C4.10065 20.1386 4.285 20.0741 4.43026 19.945L11.1844 13.8605L13.0168 15.4368C13.1621 15.5605 13.3409 15.6197 13.5196 15.6197C13.6984 15.6197 13.8828 15.5551 14.0224 15.4314L15.9051 13.8068L22.6202 19.9503C22.7655 20.0848 22.9554 20.1494 23.1398 20.1494C23.3409 20.1494 23.5364 20.0741 23.6872 19.9235C23.9722 19.6329 23.961 19.1703 23.6593 18.8959L17.028 12.833Z" fill="white"/>
</g>
<defs>
<clipPath id="clip0">
<rect width="27" height="26" fill="white"/>
</clipPath>
</defs>
</svg>
