<svg width="250" height="363" viewBox="0 0 250 363" fill="none" xmlns="http://www.w3.org/2000/svg">
<g clip-path="url(#clip0)">
<path d="M182.688 161.566C177.254 190.748 169.64 199.969 152.052 205.612C133.444 211.585 121.88 211.134 121.88 211.134V191.476C141.748 185.724 154.399 180.032 161.456 152.925C165.235 138.407 168.027 119.568 168.632 113.844C168.88 111.49 169.007 109.339 169.033 107.353C182.922 109.405 186.545 119.521 186.545 127.554C186.545 137.649 186.188 142.78 182.688 161.566ZM83.5656 192.533V87.2025C103.408 86.6172 116.111 87.8392 127.458 88.4245C138.61 89.0003 144.148 94.1752 146.587 100.125C139.302 100.028 133.349 100.028 130.722 100.028H90.2305V104.791H90.8025C97.3571 104.791 101.488 105.543 101.488 111.651V190.321C90.1956 192.786 83.5656 192.533 83.5656 192.533ZM148.231 108.951C148.231 119.046 147.872 124.177 144.374 142.964C139.863 167.181 133.847 177.649 121.88 183.734V105.806C132.302 105.498 140.742 105.692 148.065 106.026C148.177 107.02 148.231 108.001 148.231 108.951ZM192.978 103.2C188.599 101.929 179.058 101.167 168.66 100.711C167.186 90.3249 161.614 86.6153 154.664 84.5971C143.765 81.431 100.861 81.4253 92.4062 81.4253H51.9163V86.1877H52.4864C59.0428 86.1877 63.1735 86.9384 63.1735 93.0501V252.031C63.1735 259.998 59.8171 260.931 53.8804 260.986V265.741H92.8531V260.986H91.985C84.8971 260.986 83.5656 258.603 83.5656 250.524V199.323C83.5656 199.323 91.5547 198.333 101.488 196.412V270.634C101.488 278.603 98.1314 279.532 92.1965 279.587V284.342H137.064V279.587H133.247C126.158 279.587 121.88 277.21 121.88 269.127V217.928C121.88 217.928 140.591 215.608 156.336 211.178C178.442 204.96 192.265 200.347 199.77 171.528C203.549 157.009 206.339 138.168 206.944 132.448C209.14 111.646 202.297 105.903 192.978 103.2Z" fill="white"/>
<path d="M32.7932 9.73012C32.7932 7.83731 33.1187 6.99542 33.3927 6.61914C33.7514 6.12313 34.6286 5.86088 35.9307 5.86088H75.7328C79.435 5.86088 79.8635 7.57505 79.8635 8.86353C79.8635 10.1501 79.4828 11.8643 76.1908 11.8643H32.7932V9.73012ZM82.887 2.32991C81.1472 0.782971 78.9715 0 76.4207 0H36.6186C33.516 0 31.1049 0.64424 29.4515 1.91182C27.754 3.2174 26.8933 5.52831 26.8933 8.78371V23.7381H32.7932V17.5674H76.8805C79.343 17.5674 81.4212 16.7369 83.058 15.1007C84.7004 13.4587 85.5335 11.3341 85.5335 8.78371C85.5335 6.06422 84.6434 3.89205 82.887 2.32991Z" fill="white"/>
<path d="M99.3398 21.9821C100.844 23.147 103.23 23.7381 106.43 23.7381H152.433C154.311 23.7381 155.346 22.7252 155.346 20.8836C155.346 18.9452 154.34 17.8753 152.51 17.8753H105.74C104.368 17.8753 103.461 17.5921 103.058 17.0486C102.853 16.7464 102.606 15.9749 102.606 14.0042V0H96.7043V15.0304C96.7043 18.2915 97.5908 20.629 99.3398 21.9821Z" fill="white"/>
<path d="M176.109 5.86088H210.839C214.807 5.86088 216.737 7.8259 216.737 11.87C216.737 15.9103 214.581 17.8753 210.145 17.8753H176.872C172.337 17.8753 170.132 15.9103 170.132 11.87C170.132 7.8259 172.087 5.86088 176.109 5.86088ZM176.25 23.7381H210.772C214.5 23.7381 217.476 22.7252 219.617 20.7278C221.774 18.721 222.868 15.7392 222.868 11.87C222.868 3.99277 218.798 0 210.772 0H176.25C168.274 0 164.228 3.99277 164.228 11.87C164.228 15.6841 165.308 18.6507 167.439 20.686C169.56 22.7118 172.526 23.7381 176.25 23.7381Z" fill="white"/>
<path d="M32.4922 348.992C32.4922 347.099 32.8177 346.257 33.0917 345.881C33.4503 345.385 34.3276 345.123 35.6279 345.123H75.43C79.1321 345.123 79.5606 346.837 79.5606 348.127C79.5606 349.414 79.1799 351.126 75.8898 351.126H32.4922V348.992ZM82.586 341.594C80.8443 340.045 78.6687 339.262 76.1197 339.262H36.3175C33.2131 339.262 30.802 339.906 29.1505 341.178C27.4512 342.479 26.5923 344.79 26.5923 348.046V363H32.4922V356.831H76.5794C79.0438 356.831 81.122 356.001 82.757 354.365C84.3994 352.723 85.2306 350.596 85.2306 348.046C85.2306 345.33 84.3405 343.158 82.586 341.594Z" fill="white"/>
<path d="M152.948 339.262H106.945C103.844 339.262 101.433 339.906 99.7813 341.176C98.0838 342.479 97.2231 344.79 97.2231 348.046V363H103.123V348.992C103.123 347.103 103.449 346.257 103.719 345.883C104.081 345.387 104.958 345.121 106.257 345.121H153.027C154.855 345.121 155.861 344.081 155.861 342.192C155.861 340.301 154.828 339.262 152.948 339.262Z" fill="white"/>
<path d="M176.647 345.123H211.379C215.348 345.123 217.277 347.088 217.277 351.13C217.277 355.17 215.122 357.137 210.688 357.137H177.412C172.875 357.137 170.668 355.17 170.668 351.13C170.668 347.088 172.623 345.123 176.647 345.123ZM211.313 339.262H176.789C168.813 339.262 164.769 343.257 164.769 351.13C164.769 354.946 165.848 357.915 167.976 359.948C170.096 361.974 173.063 363 176.789 363H211.313C215.039 363 218.015 361.989 220.155 359.99C222.314 357.983 223.409 355.003 223.409 351.13C223.409 343.257 219.339 339.262 211.313 339.262Z" fill="white"/>
<path d="M240.297 297.168C239.887 308.416 233.595 314.359 222.106 314.359H27.7081C16.1805 314.359 9.77306 308.608 9.18086 297.727C9.1496 297.111 9.13488 70.1691 9.13488 67.8791C9.13488 55.8323 14.9263 49.4641 25.8837 49.4641H223.756C234.588 49.4641 240.315 55.8323 240.315 67.8791C240.315 70.1672 240.31 296.754 240.297 297.168ZM249.945 67.8791C249.945 48.7951 241.325 39.5154 223.596 39.5154H26.2239C8.61441 39.5154 0.0551758 48.7951 0.0551758 67.8791C0.0551758 70.1539 0.0606931 296.037 0.0717278 297.36C0.297939 305.889 2.61155 312.533 6.95002 317.09C11.5312 321.881 18.016 324.312 26.2239 324.312H223.596C231.824 324.312 238.34 321.908 242.964 317.17C247.343 312.71 249.682 306.087 249.925 297.481C249.941 295.961 249.945 70.1558 249.945 67.8791Z" fill="white"/>
</g>
<defs>
<clipPath id="clip0">
<rect width="250" height="363" fill="white"/>
</clipPath>
</defs>
</svg>
