<svg width="42" height="61" viewBox="0 0 42 61" fill="none" xmlns="http://www.w3.org/2000/svg">
<g clip-path="url(#clip0)">
<path d="M30.6916 27.1502C29.7786 32.0542 28.4995 33.6037 25.5448 34.5519C22.4186 35.5556 20.4758 35.4799 20.4758 35.4799V32.1765C23.8136 31.2098 25.939 30.2534 27.1246 25.6981C27.7595 23.2586 28.2285 20.0928 28.3302 19.131C28.3719 18.7353 28.3932 18.3738 28.3975 18.04C30.7309 18.3849 31.3395 20.0849 31.3395 21.4348C31.3395 23.1312 31.2796 23.9934 30.6916 27.1502ZM14.039 32.3541V14.6539C17.3725 14.5556 19.5066 14.7609 21.4129 14.8593C23.2865 14.956 24.2168 15.8256 24.6265 16.8255C23.4027 16.8093 22.4026 16.8093 21.9613 16.8093H15.1587V17.6096H15.2548C16.356 17.6096 17.0499 17.736 17.0499 18.7624V31.9824C15.1529 32.3966 14.039 32.3541 14.039 32.3541ZM24.9027 18.3086C24.9027 20.005 24.8425 20.8673 24.2548 24.0244C23.4969 28.0939 22.4863 29.8529 20.4758 30.8755V17.7801C22.2267 17.7284 23.6446 17.7609 24.8749 17.8171C24.8938 17.9842 24.9027 18.1489 24.9027 18.3086ZM32.4203 17.3423C31.6847 17.1286 30.0817 17.0005 28.3348 16.9239C28.0873 15.1786 27.1511 14.5553 25.9835 14.2161C24.1526 13.6841 16.9446 13.6831 15.5242 13.6831H8.72192V14.4834H8.81771C9.91919 14.4834 10.6131 14.6095 10.6131 15.6366V42.3524C10.6131 43.6911 10.0493 43.8479 9.05191 43.8572V44.6562H15.5993V43.8572H15.4535C14.2627 43.8572 14.039 43.4567 14.039 42.0992V33.4951C14.039 33.4951 15.3812 33.3288 17.0499 33.0059V45.4785C17.0499 46.8176 16.4861 46.9738 15.489 46.983V47.782H23.0267V46.983H22.3856C21.1945 46.983 20.4758 46.5835 20.4758 45.2253V36.6216C20.4758 36.6216 23.6193 36.2317 26.2644 35.4873C29.9782 34.4423 32.3004 33.6673 33.5614 28.8243C34.1963 26.3844 34.665 23.2184 34.7666 22.2571C35.1356 18.7615 33.9859 17.7964 32.4203 17.3423Z" fill="#2B2A29"/>
<path d="M5.50925 1.63509C5.50925 1.31701 5.56393 1.17554 5.60997 1.11231C5.67022 1.02896 5.8176 0.984886 6.03635 0.984886H12.7231C13.3451 0.984886 13.4171 1.27294 13.4171 1.48946C13.4171 1.70567 13.3531 1.99372 12.8 1.99372H5.50925V1.63509ZM13.925 0.391527C13.6327 0.131574 13.2672 0 12.8387 0H6.15191C5.63067 0 5.22561 0.108261 4.94785 0.321269C4.66267 0.540665 4.51807 0.928999 4.51807 1.47605V3.98904H5.50925V2.9521H12.9159C13.3296 2.9521 13.6788 2.81254 13.9537 2.53758C14.2297 2.26166 14.3696 1.90462 14.3696 1.47605C14.3696 1.01906 14.2201 0.654036 13.925 0.391527Z" fill="#2B2A29"/>
<path d="M16.6891 3.69396C16.9418 3.88972 17.3426 3.98904 17.8802 3.98904H25.6088C25.9242 3.98904 26.0982 3.81883 26.0982 3.50937C26.0982 3.18363 25.9292 3.00384 25.6218 3.00384H17.7643C17.5338 3.00384 17.3815 2.95625 17.3138 2.86492C17.2792 2.81414 17.2378 2.68448 17.2378 2.35331V0H16.2463V2.52577C16.2463 3.07378 16.3953 3.46658 16.6891 3.69396Z" fill="#2B2A29"/>
<path d="M29.5862 0.984886H35.4208C36.0875 0.984886 36.4116 1.3151 36.4116 1.99468C36.4116 2.67363 36.0495 3.00384 35.3043 3.00384H29.7144C28.9525 3.00384 28.582 2.67363 28.582 1.99468C28.582 1.3151 28.9104 0.984886 29.5862 0.984886ZM29.61 3.98904H35.4097C36.0359 3.98904 36.5359 3.81883 36.8955 3.48319C37.2579 3.14595 37.4418 2.64488 37.4418 1.99468C37.4418 0.670961 36.758 0 35.4097 0H29.61C28.2699 0 27.5902 0.670961 27.5902 1.99468C27.5902 2.63562 27.7716 3.13413 28.1297 3.47616C28.4859 3.81659 28.9843 3.98904 29.61 3.98904Z" fill="#2B2A29"/>
<path d="M5.45859 58.6461C5.45859 58.328 5.51328 58.1865 5.55931 58.1233C5.61956 58.0399 5.76694 57.9959 5.98538 57.9959H12.6721C13.2941 57.9959 13.3661 58.2839 13.3661 58.5008C13.3661 58.717 13.3021 59.0047 12.7494 59.0047H5.45859V58.6461ZM13.8744 57.4028C13.5818 57.1426 13.2162 57.011 12.788 57.011H6.10125C5.5797 57.011 5.17464 57.1192 4.89719 57.3329C4.6117 57.5517 4.46741 57.94 4.46741 58.487V61H5.45859V59.9634H12.8652C13.2793 59.9634 13.6284 59.8238 13.9031 59.5489C14.179 59.273 14.3187 58.9156 14.3187 58.487C14.3187 58.0307 14.1691 57.6657 13.8744 57.4028Z" fill="#2B2A29"/>
<path d="M25.6953 57.011H17.9667C17.4458 57.011 17.0407 57.1192 16.7633 57.3326C16.4781 57.5517 16.3335 57.94 16.3335 58.487V61H17.3247V58.6461C17.3247 58.3286 17.3794 58.1865 17.4248 58.1236C17.4856 58.0403 17.633 57.9956 17.8512 57.9956H25.7086C26.0157 57.9956 26.1847 57.8209 26.1847 57.5034C26.1847 57.1857 26.0111 57.011 25.6953 57.011Z" fill="#2B2A29"/>
<path d="M29.6767 57.9959H35.5116C36.1784 57.9959 36.5025 58.3261 36.5025 59.0053C36.5025 59.6843 36.1404 60.0148 35.3954 60.0148H29.8052C29.043 60.0148 28.6722 59.6843 28.6722 59.0053C28.6722 58.3261 29.0006 57.9959 29.6767 57.9959ZM35.5005 57.011H29.7005C28.3605 57.011 27.681 57.6823 27.681 59.0053C27.681 59.6466 27.8624 60.1454 28.2199 60.4871C28.5761 60.8276 29.0745 61 29.7005 61H35.5005C36.1265 61 36.6264 60.8301 36.986 60.4942C37.3487 60.1569 37.5326 59.6562 37.5326 59.0053C37.5326 57.6823 36.8488 57.011 35.5005 57.011Z" fill="#2B2A29"/>
<path d="M40.3699 49.9374C40.301 51.8276 39.244 52.8262 37.3138 52.8262H4.65497C2.71834 52.8262 1.64188 51.8599 1.54239 50.0313C1.53714 49.9278 1.53467 11.7916 1.53467 11.4067C1.53467 9.38235 2.50762 8.3122 4.34847 8.3122H37.591C39.4108 8.3122 40.373 9.38235 40.373 11.4067C40.373 11.7912 40.372 49.8678 40.3699 49.9374ZM41.9907 11.4067C41.9907 8.19978 40.5426 6.64038 37.5641 6.64038H4.40563C1.44723 6.64038 0.00927734 8.19978 0.00927734 11.4067C0.00927734 11.789 0.0102043 49.7474 0.0120581 49.9696C0.0500615 51.4029 0.438747 52.5193 1.16761 53.2852C1.93726 54.0902 3.02669 54.4987 4.40563 54.4987H37.5641C38.9464 54.4987 40.0411 54.0947 40.8179 53.2986C41.5535 52.549 41.9466 51.4361 41.9873 49.9901C41.9901 49.7346 41.9907 11.7893 41.9907 11.4067Z" fill="#2B2A29"/>
</g>
<defs>
<clipPath id="clip0">
<rect width="42" height="61" fill="white"/>
</clipPath>
</defs>
</svg>
