<svg width="19" height="19" viewBox="0 0 19 19" fill="none" xmlns="http://www.w3.org/2000/svg">
<g clip-path="url(#clip0)">
<path d="M17.288 8.92273C16.8825 8.92273 16.556 9.24925 16.556 9.65471C16.556 13.695 13.2693 16.9817 9.22899 16.9817C5.18872 16.9817 1.90196 13.695 1.90196 9.65471C1.90196 5.61444 5.18872 2.32768 9.22899 2.32768C11.4357 2.32768 13.481 3.30007 14.866 4.97216H12.3363C11.9309 4.97216 11.6044 5.29868 11.6044 5.70414C11.6044 6.10961 11.9309 6.43613 12.3363 6.43613H16.4484C16.8538 6.43613 17.1804 6.10961 17.1804 5.70414V1.59569C17.1804 1.19023 16.8538 0.863708 16.4484 0.863708C16.0429 0.863708 15.7164 1.19023 15.7164 1.59569V3.71271C14.0623 1.90786 11.7335 0.863708 9.22899 0.863708C4.38138 0.863708 0.437988 4.8071 0.437988 9.65471C0.437988 14.5023 4.38138 18.4457 9.22899 18.4457C14.0766 18.4457 18.02 14.5023 18.02 9.65471C18.02 9.24925 17.6935 8.92273 17.288 8.92273Z" fill="white"/>
</g>
<defs>
<clipPath id="clip0">
<rect width="18.3714" height="18.3714" fill="white" transform="translate(0.0432129 0.468994)"/>
</clipPath>
</defs>
</svg>
